<svg xmlns="http://www.w3.org/2000/svg" xmlns:xlink="http://www.w3.org/1999/xlink" viewBox="0 0 500 500" width="500" height="500" preserveAspectRatio="xMidYMid meet" style="width: 100%; height: 100%; transform: translate3d(0px, 0px, 0px); content-visibility: visible;"><defs><clipPath id="__lottie_element_48"><rect width="500" height="500" x="0" y="0"></rect></clipPath><clipPath id="__lottie_element_50"><path d="M0,0 L83,0 L83,156 L0,156z"></path></clipPath><clipPath id="__lottie_element_173"><path d="M0,0 L83,0 L83,156 L0,156z"></path></clipPath><clipPath id="__lottie_element_186"><path d="M0,0 L83,0 L83,156 L0,156z"></path></clipPath></defs><g clip-path="url(#__lottie_element_48)"><g clip-path="url(#__lottie_element_186)" transform="matrix(1,0,0,1,278.5,172)" opacity="1" style="display: block;"><g transform="matrix(1,0,0,1,36.83599853515625,193.83599853515625)" opacity="1" style="display: block;"><g opacity="1" transform="matrix(1,0,0,1,3.1640000343322754,-58.83599853515625)"><path fill="rgb(248, 248, 248)" fill-opacity="0.9500000000000001" d=" M20,0 C20,0 20,0 20,0 C20,11.038000106811523 11.038000106811523,20 0,20 C0,20 0,20 0,20 C-11.038000106811523,20 -20,11.038000106811523 -20,0 C-20,0 -20,0 -20,0 C-20,-11.038000106811523 -11.038000106811523,-20 0,-20 C0,-20 0,-20 0,-20 C11.038000106811523,-20 20,-11.038000106811523 20,0z"></path></g></g></g><g clip-path="url(#__lottie_element_173)" transform="matrix(1,0,0,1,208.5,172)" opacity="1" style="display: block;"><g transform="matrix(1,0,0,1,36.83599853515625,193.83599853515625)" opacity="1" style="display: block;"><g opacity="1" transform="matrix(1,0,0,1,3.1640000343322754,-58.83599853515625)"><path fill="rgb(248, 248, 248)" fill-opacity="0.9500000000000001" d=" M20,0 C20,0 20,0 20,0 C20,11.038000106811523 11.038000106811523,20 0,20 C0,20 0,20 0,20 C-11.038000106811523,20 -20,11.038000106811523 -20,0 C-20,0 -20,0 -20,0 C-20,-11.038000106811523 -11.038000106811523,-20 0,-20 C0,-20 0,-20 0,-20 C11.038000106811523,-20 20,-11.038000106811523 20,0z"></path></g></g></g><g clip-path="url(#__lottie_element_50)" transform="matrix(1,0,0,1,138.5,172)" opacity="1" style="display: block;"><g transform="matrix(1,0,0,1,36.83599853515625,193.83599853515625)" opacity="1" style="display: block;"><g opacity="1" transform="matrix(1,0,0,1,3.1640000343322754,-58.83599853515625)"><path fill="rgb(248, 248, 248)" fill-opacity="0.9500000000000001" d=" M20,0 C20,0 20,0 20,0 C20,11.038000106811523 11.038000106811523,20 0,20 C0,20 0,20 0,20 C-11.038000106811523,20 -20,11.038000106811523 -20,0 C-20,0 -20,0 -20,0 C-20,-11.038000106811523 -11.038000106811523,-20 0,-20 C0,-20 0,-20 0,-20 C11.038000106811523,-20 20,-11.038000106811523 20,0z"></path></g></g></g></g></svg>